<?xml version="1.0" encoding="utf-8"?>
<!-- Generator: Adobe Illustrator 22.1.0, SVG Export Plug-In . SVG Version: 6.00 Build 0)  -->
<svg version="1.1" id="Layer_1" xmlns="http://www.w3.org/2000/svg" xmlns:xlink="http://www.w3.org/1999/xlink" x="0px" y="0px"
	 viewBox="0 0 460 429.6" style="enable-background:new 0 0 460 429.6;" xml:space="preserve">
<style type="text/css">
	.st0{clip-path:url(#SVGID_2_);}
	.st1{clip-path:url(#SVGID_4_);fill:#DFE1F2;}
	.st2{clip-path:url(#SVGID_6_);}
	.st3{clip-path:url(#SVGID_8_);fill:#D0D4EA;}
	.st4{clip-path:url(#SVGID_10_);}
	.st5{clip-path:url(#SVGID_12_);fill:#DFE1F2;}
	.st6{clip-path:url(#SVGID_14_);}
	.st7{clip-path:url(#SVGID_16_);fill:#D0D4EA;}
	.st8{clip-path:url(#SVGID_18_);}
	.st9{clip-path:url(#SVGID_20_);fill:#C62128;}
	.st10{clip-path:url(#SVGID_22_);}
	.st11{clip-path:url(#SVGID_24_);fill:#C62128;}
	.st12{clip-path:url(#SVGID_26_);}
	.st13{clip-path:url(#SVGID_28_);fill:#EE3344;}
	.st14{clip-path:url(#SVGID_30_);}
	.st15{clip-path:url(#SVGID_32_);fill:#EE3344;}
	.st16{clip-path:url(#SVGID_34_);}
	.st17{clip-path:url(#SVGID_36_);fill:#EE3344;}
	.st18{clip-path:url(#SVGID_38_);}
	.st19{clip-path:url(#SVGID_40_);fill:#B3BADE;}
	.st20{clip-path:url(#SVGID_42_);}
	.st21{clip-path:url(#SVGID_44_);fill:#EE3344;}
	.st22{clip-path:url(#SVGID_46_);}
	.st23{clip-path:url(#SVGID_48_);fill:#C92033;}
	.st24{clip-path:url(#SVGID_50_);}
	.st25{clip-path:url(#SVGID_52_);fill:#EE3344;}
	.st26{clip-path:url(#SVGID_54_);}
	.st27{clip-path:url(#SVGID_56_);fill:#C92033;}
</style>
<g>
	<g>
		<defs>
			<path id="SVGID_1_" d="M41.9,186v199.3c0,24.5,19.9,44.3,44.3,44.3h287.5c24.5,0,44.3-19.9,44.3-44.3V186H41.9z"/>
		</defs>
		<clipPath id="SVGID_2_">
			<use xlink:href="#SVGID_1_"  style="overflow:visible;"/>
		</clipPath>
		<g class="st0">
			<defs>
				<rect id="SVGID_3_" x="-6906" y="-1296.2" width="20000" height="6295"/>
			</defs>
			<clipPath id="SVGID_4_">
				<use xlink:href="#SVGID_3_"  style="overflow:visible;"/>
			</clipPath>
			<rect x="36.9" y="181" class="st1" width="386.1" height="253.6"/>
		</g>
	</g>
	<g>
		<defs>
			<path id="SVGID_5_" d="M350.8,186v199.3c0,24.5-19.9,44.3-44.3,44.3h67.2c24.5,0,44.3-19.9,44.3-44.3V186H350.8z"/>
		</defs>
		<clipPath id="SVGID_6_">
			<use xlink:href="#SVGID_5_"  style="overflow:visible;"/>
		</clipPath>
		<g class="st2">
			<defs>
				<rect id="SVGID_7_" x="-6906" y="-1296.2" width="20000" height="6295"/>
			</defs>
			<clipPath id="SVGID_8_">
				<use xlink:href="#SVGID_7_"  style="overflow:visible;"/>
			</clipPath>
			<rect x="301.5" y="181" class="st3" width="121.5" height="253.6"/>
		</g>
	</g>
	<g>
		<defs>
			<path id="SVGID_9_" d="M403,88.5H57c-31.5,0-57,25.5-57,57v26.8c0,7.5,6.1,13.6,13.6,13.6h432.7c7.5,0,13.6-6.1,13.6-13.6v-26.8
				C460,114.1,434.5,88.5,403,88.5z"/>
		</defs>
		<clipPath id="SVGID_10_">
			<use xlink:href="#SVGID_9_"  style="overflow:visible;"/>
		</clipPath>
		<g class="st4">
			<defs>
				<rect id="SVGID_11_" x="-6906" y="-1296.2" width="20000" height="6295"/>
			</defs>
			<clipPath id="SVGID_12_">
				<use xlink:href="#SVGID_11_"  style="overflow:visible;"/>
			</clipPath>
			<rect x="-5" y="83.5" class="st5" width="469.9" height="107.4"/>
		</g>
	</g>
	<g>
		<defs>
			<path id="SVGID_13_" d="M403,88.5H295.3c31.5,0,57,25.5,57,57v26.8c0,7.5-6.1,13.6-13.6,13.6h107.7c7.5,0,13.6-6.1,13.6-13.6
				v-26.8C460,114.1,434.5,88.5,403,88.5z"/>
		</defs>
		<clipPath id="SVGID_14_">
			<use xlink:href="#SVGID_13_"  style="overflow:visible;"/>
		</clipPath>
		<g class="st6">
			<defs>
				<rect id="SVGID_15_" x="-6906" y="-1296.2" width="20000" height="6295"/>
			</defs>
			<clipPath id="SVGID_16_">
				<use xlink:href="#SVGID_15_"  style="overflow:visible;"/>
			</clipPath>
			<rect x="290.3" y="83.5" class="st7" width="174.7" height="107.4"/>
		</g>
	</g>
	<g>
		<defs>
			<path id="SVGID_17_" d="M197.3,49.9l-24.6,38.7L100,42.3c-10.7-6.8-13.8-21-7-31.7c6.8-10.7,21-13.8,31.7-7L197.3,49.9z"/>
		</defs>
		<clipPath id="SVGID_18_">
			<use xlink:href="#SVGID_17_"  style="overflow:visible;"/>
		</clipPath>
		<g class="st8">
			<defs>
				<rect id="SVGID_19_" x="-6906" y="-1296.2" width="20000" height="6295"/>
			</defs>
			<clipPath id="SVGID_20_">
				<use xlink:href="#SVGID_19_"  style="overflow:visible;"/>
			</clipPath>
			<rect x="84.4" y="-5" class="st9" width="117.9" height="98.6"/>
		</g>
	</g>
	<g>
		<defs>
			<path id="SVGID_21_" d="M262.4,49.9L287,88.6l72.7-46.3c10.7-6.8,13.8-21,7-31.7c-6.8-10.7-21-13.8-31.7-7L262.4,49.9z"/>
		</defs>
		<clipPath id="SVGID_22_">
			<use xlink:href="#SVGID_21_"  style="overflow:visible;"/>
		</clipPath>
		<g class="st10">
			<defs>
				<rect id="SVGID_23_" x="-6906" y="-1296.2" width="20000" height="6295"/>
			</defs>
			<clipPath id="SVGID_24_">
				<use xlink:href="#SVGID_23_"  style="overflow:visible;"/>
			</clipPath>
			<rect x="257.4" y="-5" class="st11" width="117.9" height="98.6"/>
		</g>
	</g>
	<g>
		<defs>
			<path id="SVGID_25_" d="M287.5,88.5h-115V63.2c0-31.8,25.7-57.5,57.5-57.5s57.5,25.7,57.5,57.5V88.5z"/>
		</defs>
		<clipPath id="SVGID_26_">
			<use xlink:href="#SVGID_25_"  style="overflow:visible;"/>
		</clipPath>
		<g class="st12">
			<defs>
				<rect id="SVGID_27_" x="-6906" y="-1296.2" width="20000" height="6295"/>
			</defs>
			<clipPath id="SVGID_28_">
				<use xlink:href="#SVGID_27_"  style="overflow:visible;"/>
			</clipPath>
			<rect x="167.5" y="0.7" class="st13" width="125" height="92.8"/>
		</g>
	</g>
	<g>
		<defs>
			<path id="SVGID_29_" d="M172.5,88.5H60.4V73.1c0-14.9,12.1-26.9,26.9-26.9h42.8C153.5,46.1,172.5,65.1,172.5,88.5z"/>
		</defs>
		<clipPath id="SVGID_30_">
			<use xlink:href="#SVGID_29_"  style="overflow:visible;"/>
		</clipPath>
		<g class="st14">
			<defs>
				<rect id="SVGID_31_" x="-6906" y="-1296.2" width="20000" height="6295"/>
			</defs>
			<clipPath id="SVGID_32_">
				<use xlink:href="#SVGID_31_"  style="overflow:visible;"/>
			</clipPath>
			<rect x="55.4" y="41.2" class="st15" width="122.1" height="52.3"/>
		</g>
	</g>
	<g>
		<defs>
			<path id="SVGID_33_" d="M287.5,88.5h112.1V73.1c0-14.9-12.1-26.9-26.9-26.9h-42.8C306.5,46.1,287.5,65.1,287.5,88.5z"/>
		</defs>
		<clipPath id="SVGID_34_">
			<use xlink:href="#SVGID_33_"  style="overflow:visible;"/>
		</clipPath>
		<g class="st16">
			<defs>
				<rect id="SVGID_35_" x="-6906" y="-1296.2" width="20000" height="6295"/>
			</defs>
			<clipPath id="SVGID_36_">
				<use xlink:href="#SVGID_35_"  style="overflow:visible;"/>
			</clipPath>
			<rect x="282.5" y="41.2" class="st17" width="122.1" height="52.3"/>
		</g>
	</g>
	<g>
		<defs>
			<rect id="SVGID_37_" x="41.9" y="186" width="376.2" height="24.4"/>
		</defs>
		<clipPath id="SVGID_38_">
			<use xlink:href="#SVGID_37_"  style="overflow:visible;"/>
		</clipPath>
		<g class="st18">
			<defs>
				<rect id="SVGID_39_" x="-6906" y="-1296.2" width="20000" height="6295"/>
			</defs>
			<clipPath id="SVGID_40_">
				<use xlink:href="#SVGID_39_"  style="overflow:visible;"/>
			</clipPath>
			<rect x="36.9" y="181" class="st19" width="386.2" height="34.4"/>
		</g>
	</g>
	<g>
		<defs>
			<rect id="SVGID_41_" x="185.8" y="182.1" width="88.3" height="247.5"/>
		</defs>
		<clipPath id="SVGID_42_">
			<use xlink:href="#SVGID_41_"  style="overflow:visible;"/>
		</clipPath>
		<g class="st20">
			<defs>
				<rect id="SVGID_43_" x="-6906" y="-1296.2" width="20000" height="6295"/>
			</defs>
			<clipPath id="SVGID_44_">
				<use xlink:href="#SVGID_43_"  style="overflow:visible;"/>
			</clipPath>
			<rect x="180.8" y="177.1" class="st21" width="98.3" height="257.5"/>
		</g>
	</g>
	<g>
		<defs>
			<rect id="SVGID_45_" x="185.8" y="184" width="88.3" height="26.3"/>
		</defs>
		<clipPath id="SVGID_46_">
			<use xlink:href="#SVGID_45_"  style="overflow:visible;"/>
		</clipPath>
		<g class="st22">
			<defs>
				<rect id="SVGID_47_" x="-6906" y="-1296.2" width="20000" height="6295"/>
			</defs>
			<clipPath id="SVGID_48_">
				<use xlink:href="#SVGID_47_"  style="overflow:visible;"/>
			</clipPath>
			<rect x="180.8" y="179" class="st23" width="98.3" height="36.3"/>
		</g>
	</g>
	<g>
		<defs>
			<rect id="SVGID_49_" x="172.5" y="88.5" width="115" height="97.5"/>
		</defs>
		<clipPath id="SVGID_50_">
			<use xlink:href="#SVGID_49_"  style="overflow:visible;"/>
		</clipPath>
		<g class="st24">
			<defs>
				<rect id="SVGID_51_" x="-6906" y="-1296.2" width="20000" height="6295"/>
			</defs>
			<clipPath id="SVGID_52_">
				<use xlink:href="#SVGID_51_"  style="overflow:visible;"/>
			</clipPath>
			<rect x="167.5" y="83.5" class="st25" width="125" height="107.5"/>
		</g>
	</g>
	<g>
		<defs>
			<rect id="SVGID_53_" x="172.5" y="67.6" width="115" height="21"/>
		</defs>
		<clipPath id="SVGID_54_">
			<use xlink:href="#SVGID_53_"  style="overflow:visible;"/>
		</clipPath>
		<g class="st26">
			<defs>
				<rect id="SVGID_55_" x="-6906" y="-1296.2" width="20000" height="6295"/>
			</defs>
			<clipPath id="SVGID_56_">
				<use xlink:href="#SVGID_55_"  style="overflow:visible;"/>
			</clipPath>
			<rect x="167.5" y="62.6" class="st27" width="125" height="31"/>
		</g>
	</g>
</g>
</svg>
