<?xml version="1.0" encoding="UTF-8"?>
<svg width="364px" height="448px" viewBox="0 0 364 448" version="1.1" xmlns="http://www.w3.org/2000/svg" xmlns:xlink="http://www.w3.org/1999/xlink">
    <!-- Generator: Sketch 50.2 (55047) - http://www.bohemiancoding.com/sketch -->
    <title>Artboard</title>
    <desc>Created with Sketch.</desc>
    <defs></defs>
    <g id="Artboard" stroke="none" stroke-width="1" fill="none" fill-rule="evenodd">
        <g id="champagne-icon" fill-rule="nonzero">
            <path d="M148.9,288.1 L187.5,171.5 C188.6,168.3 186.8,164.9 183.6,163.8 L85.2,131.3 C82,130.2 78.6,132 77.5,135.2 L38.9,251.7 C30.2,278.1 41.5,306.3 64.5,319.8 L35,409.3 L17.6,403.6 C10.8,401.4 3.5,405 1.2,411.8 C-1,418.6 2.6,425.9 9.4,428.2 L67.3,447.3 C74.1,449.5 81.4,445.9 83.7,439.1 C85.9,432.3 82.3,425 75.5,422.7 L58.1,417 L87.7,327.5 C114.3,330.3 140.2,314.4 148.9,288.1 Z" id="Shape" fill="#95D3F9"></path>
            <path d="M75.5,422.7 L63.4,418.7 C70.2,420.9 73.9,428.3 71.6,435.1 C69.4,441.9 62,445.6 55.2,443.3 L67.3,447.3 C74.1,449.5 81.4,445.9 83.7,439.1 C85.9,432.2 82.3,424.9 75.5,422.7 Z" id="Shape" fill="#86CCEF"></path>
            <path d="M183.6,163.8 L171.5,159.8 C174.7,160.9 176.4,164.3 175.4,167.5 L136.8,284.1 C128.1,310.5 102.2,326.4 75.6,323.5 L46,412.9 L58.1,416.9 L87.7,327.4 C114.3,330.3 140.1,314.4 148.9,288 L187.5,171.4 C188.5,168.3 186.8,164.8 183.6,163.8 Z" id="Shape" fill="#86CCEF"></path>
            <path d="M77.4,312.5 C54.5,303.6 43.2,277.6 50.9,254.3 L66.6,206.9 C67.1,205.3 68.9,204.4 70.5,205 L151.5,231.8 C153.1,232.3 154,234.1 153.4,235.7 L137.3,284.4 C129.2,308.9 101.9,322 77.4,312.5 Z" id="Shape" fill="#FFB81A"></path>
            <path d="M51.1,308.8 C54.8,312.9 59.2,316.6 64.1,319.5 L122.3,143.5 L107.4,138.6 L51.1,308.8 Z" id="Shape" fill="#9DDCFC"></path>
            <path d="M55.8,294.6 C59,299.6 63.1,304 68.1,307.5 L98.9,214.3 L84,209.4 L55.8,294.6 Z" id="Shape" fill="#FFCC71"></path>
            <circle id="Oval" fill="#FFD98D" cx="110.7" cy="239.7" r="6.5"></circle>
            <circle id="Oval" fill="#FFD98D" cx="118.3" cy="273.4" r="6.5"></circle>
            <circle id="Oval" fill="#FFD98D" cx="86.6" cy="290.2" r="6.5"></circle>
            <path d="M323.2,182.3 L283.3,66.1 C282.2,62.9 278.7,61.2 275.6,62.3 L177.6,95.9 C174.4,97 172.7,100.5 173.8,103.6 L213.7,219.7 C222.7,246 248.8,261.6 275.3,258.4 L305.9,347.5 L288.6,353.4 C281.8,355.7 278.2,363.1 280.6,369.9 C282.9,376.7 290.3,380.3 297.1,377.9 L354.7,358.1 C361.5,355.8 365.1,348.4 362.7,341.6 C360.4,334.8 353,331.2 346.2,333.6 L328.9,339.5 L298.3,250.4 C321.2,236.8 332.2,208.5 323.2,182.3 Z" id="Shape" fill="#95D3F9"></path>
            <path d="M275.6,62.3 L263.6,66.4 C266.8,65.3 270.3,67 271.3,70.2 L311.2,186.3 C320.2,212.6 309.2,240.9 286.3,254.7 L316.9,343.8 L328.9,339.7 L298.3,250.6 C321.2,236.8 332.2,208.5 323.2,182.2 L283.3,66.1 C282.3,62.9 278.8,61.2 275.6,62.3 Z" id="Shape" fill="#86CCEF"></path>
            <path d="M281.1,245 C257.5,251.8 232.8,237.9 224.8,214.7 L208.6,167.4 C208.1,165.8 208.9,164.1 210.5,163.5 L291.2,135.8 C292.8,135.3 294.5,136.1 295.1,137.7 L311.8,186.2 C320.1,210.8 306.3,237.7 281.1,245 Z" id="Shape" fill="#FFB81A"></path>
            <path d="M257.9,257.9 C263.4,258.9 269,259.2 274.7,258.5 L214.6,83.3 L199.7,88.4 L257.9,257.9 Z" id="Shape" fill="#9DDCFC"></path>
            <path d="M253.1,243.8 C258.7,245.9 264.6,246.9 270.7,246.7 L238.8,153.8 L223.9,158.9 L253.1,243.8 Z" id="Shape" fill="#FFCC71"></path>
            <circle id="Oval" fill="#FFD98D" cx="263.6" cy="166.9" r="6.5"></circle>
            <circle id="Oval" fill="#FFD98D" cx="290" cy="189.1" r="6.5"></circle>
            <circle id="Oval" fill="#FFD98D" cx="275" cy="221.6" r="6.5"></circle>
            <path d="M143.7,78 C143.7,82.5 137.9,84.4 135.2,80.7 L104.2,38 C101.5,34.2 102.3,28.9 106.1,26.2 C109.9,23.5 115.2,24.3 117.9,28.1 L145.6,66.2 C148.4,70 147.5,75.3 143.7,78 Z" id="Shape" fill="#F25561"></path>
            <path d="M159.6,63.4 C155,62.7 151.8,58.3 152.6,53.7 L160,7.2 C160.7,2.6 165.1,-0.6 169.7,0.2 C174.3,0.9 177.5,5.3 176.7,9.9 L169.3,56.4 C168.6,61 164.2,64.1 159.6,63.4 Z" id="Shape" fill="#F25561"></path>
            <path d="M123.1,89.9 C122.4,94.5 118,97.7 113.4,96.9 L66.9,89.5 C62.3,88.8 59.1,84.4 59.9,79.8 C60.6,75.2 65,72 69.6,72.8 L116.1,80.2 C120.7,81 123.8,85.3 123.1,89.9 Z" id="Shape" fill="#F25561"></path>
        </g>
    </g>
</svg>